<?xml version="1.0" standalone="no"?><!DOCTYPE svg PUBLIC "-//W3C//DTD SVG 1.1//EN" "http://www.w3.org/Graphics/SVG/1.1/DTD/svg11.dtd"><svg t="1780129204858" class="icon" viewBox="0 0 1024 1024" version="1.1" xmlns="http://www.w3.org/2000/svg" p-id="1854" xmlns:xlink="http://www.w3.org/1999/xlink" width="128" height="128"><path d="M104.187409 734.890416c21.955034 38.012755 71.254857 58.142212 142.5486 58.142212 0 0 0 0 0.026606 0 32.038694 0 67.302849-4.493338 104.07331-12.251022 35.396161 108.447944 91.913363 177.824011 156.970054 177.824011 65.054645 0 121.571846-69.37709 156.968008-177.824011 36.797068 7.718799 72.061222 12.251022 104.125499 12.251022l0 0c71.241554 0 120.541377-20.129456 142.511761-58.142212 28.415167-49.233308 3.25002-131.987057-82.965573-223.701898 86.215594-91.728144 111.38074-174.508499 82.965573-223.729527-21.970384-38.012755-71.269183-58.142212-142.550647-58.142212-32.050973 0-67.342758 4.50664-104.112196 12.265348C629.376803 133.106554 572.859601 63.742766 507.804956 63.742766c-65.056692 0-121.573893 69.363787-156.970054 177.838338-36.810371-7.717775-72.060199-12.265348-104.099916-12.265348-71.293743 0-120.594589 20.129456-142.5486 58.142212-28.417213 49.222051-3.258207 132.014686 82.95227 223.729527C100.929202 602.902336 75.73745 685.656085 104.187409 734.890416zM507.804956 930.651962c-51.41602 0-98.324376-61.4874-129.398092-156.030659 42.030255-10.628058 85.753059-25.720801 129.398092-44.701085 43.656289 18.980283 87.36579 34.073026 129.383766 44.701085C606.128309 869.164562 559.245536 930.651962 507.804956 930.651962zM340.010369 511.188518c0-32.568766 1.744737-64.236 4.706185-94.887091 24.966625-17.407462 51.361785-34.339086 79.19776-50.450019 27.504424-15.861246 55.685253-30.109762 83.890642-42.837644 28.205389 12.727882 56.385195 26.924209 83.901899 42.837644 27.821649 16.072047 54.191226 33.042557 79.199807 50.450019 2.960425 30.651091 4.677533 62.318324 4.677533 94.887091 0 32.540114-1.718131 64.236-4.677533 94.872764-24.980951 17.435091-51.377134 34.351366-79.199807 50.436716-27.517727 15.847943-55.697533 30.123065-83.901899 42.837644-28.205389-12.715603-56.386218-26.936489-83.890642-42.837644-27.835975-16.057721-54.204529-33.001625-79.19776-50.436716C341.755106 575.424518 340.010369 543.728632 340.010369 511.188518zM314.805314 584.53092c-32.091906-24.095791-61.09138-48.77282-86.309738-73.342402 25.218358-24.571628 54.256718-49.27424 86.309738-73.356728-1.664919 23.870664-2.750647 48.230468-2.750647 73.356728C312.05569 536.300452 313.140395 560.66128 314.805314 584.53092zM348.984764 379.358027c5.155417-37.498032 12.370749-72.839959 21.372773-104.984053 33.412994 8.41874 68.108191 20.037359 102.975303 34.07405-21.358447 10.296507-42.584887 21.173229-63.429635 33.202193C388.319631 354.138646 368.322182 366.722242 348.984764 379.358027zM542.24842 308.448024c34.867112-14.036691 69.563332-25.65531 102.989629-34.07405 8.987698 32.145118 16.21838 67.487044 21.358447 104.984053-19.309788-12.635785-39.333844-25.219381-60.944024-37.708833C584.84661 329.621253 563.60789 318.783417 542.24842 308.448024zM700.830181 437.83179c32.064276 24.082488 61.063751 48.758494 86.281085 73.356728-25.218358 24.545022-54.243415 49.246611-86.281085 73.342402 1.638313-23.86964 2.736321-48.230468 2.736321-73.342402C703.566502 486.061234 702.468494 461.702454 700.830181 437.83179zM666.623102 643.016962c-5.154393 37.471426-12.371772 72.814376-21.372773 104.985076-33.400714-8.432043-68.081585-20.077268-102.963023-34.113959 21.345144-10.283204 42.586934-21.160949 63.430658-33.18889C627.302561 668.222017 647.286708 655.626141 666.623102 643.016962zM409.917532 680.700213c20.857027 12.027941 42.09677 22.905686 63.443961 33.18889-34.880415 14.036691-69.576635 25.681916-102.963023 34.113959-9.014304-32.1707-16.231683-67.51365-21.372773-104.985076C368.322182 655.626141 388.319631 668.222017 409.917532 680.700213zM887.206986 720.919217c-16.45374 28.497031-58.44511 44.158732-118.29522 44.158732-29.53978 0-62.016449-4.070712-95.970772-11.075243 11.063987-39.810704 19.388583-84.102467 24.531719-131.618667 43.220361-30.306236 79.701227-60.627822 110.179378-90.312912C878.443391 607.052866 911.857409 678.202323 887.206986 720.919217zM768.898463 257.270435c59.849086 0 101.854782 15.714913 118.269637 44.172035 24.689309 42.705638-8.751315 113.854071-79.541591 188.835809-30.464849-29.632901-66.959018-59.979046-110.205984-90.313935-5.127787-47.502897-13.441127-91.806939-24.50409-131.617643C706.856431 261.341147 739.371986 257.270435 768.898463 257.270435zM507.804956 91.697445c51.440579 0 98.323353 61.512982 129.383766 156.030659-42.017976 10.639315-85.726453 25.721825-129.383766 44.700061-43.645033-18.978237-87.367837-34.060747-129.398092-44.700061C409.48058 153.210427 456.388936 91.697445 507.804956 91.697445zM128.408043 301.441447c16.442484-28.509311 58.453297-44.172035 118.300336-44.172035 29.5275 0 62.016449 4.070712 95.970772 11.076266-11.075243 39.810704-19.389606 84.114746-24.530696 131.617643-43.234687 30.334889-79.713506 60.641125-110.192681 90.313935C137.158335 415.296541 103.764783 344.147084 128.408043 301.441447zM207.956797 532.071128c30.479175 29.646204 66.959018 60.006675 110.192681 90.312912 5.14109 47.517223 13.45443 91.807962 24.530696 131.618667-33.92874 7.005554-66.416666 11.075243-95.944166 11.075243l-0.026606 0c-59.84704 0-101.884458-15.71389-118.300336-44.158732C103.764783 678.202323 137.158335 607.052866 207.956797 532.071128z" p-id="1855" fill="#4285F4"></path><path d="M507.804956 581.106937c38.540781 0 69.918419-31.365358 69.918419-69.919443 0-38.581714-31.377638-69.932746-69.918419-69.932746-38.542828 0-69.907163 31.352055-69.907163 69.932746C437.897793 549.741579 469.263152 581.106937 507.804956 581.106937zM507.804956 469.236034c23.12979 0 41.951461 18.808368 41.951461 41.952484 0 23.116487-18.822694 41.938158-41.951461 41.938158-23.130813 0-41.953508-18.821671-41.953508-41.938158C465.852472 488.044402 484.674143 469.236034 507.804956 469.236034z" p-id="1856" fill="#4285F4"></path></svg>